<mxfile host="app.diagrams.net" modified="2024-03-09T05:50:37.586Z" agent="Mozilla/5.0 (Windows NT 10.0; Win64; x64) AppleWebKit/537.36 (KHTML, like Gecko) Chrome/122.0.0.0 Safari/537.36" etag="vvYxefa_6-txWqjYda0Q" version="23.0.2" type="github">
  <diagram name="페이지-1" id="3-n-OQbZGArMyjqzdqo5">
    <mxGraphModel dx="2210" dy="1978" grid="1" gridSize="10" guides="1" tooltips="1" connect="1" arrows="1" fold="1" page="1" pageScale="1" pageWidth="827" pageHeight="1169" math="0" shadow="0">
      <root>
        <mxCell id="0" />
        <mxCell id="1" parent="0" />
        <mxCell id="p4jZmZristvJu5TTy14j-78" value="" style="rounded=0;whiteSpace=wrap;html=1;" vertex="1" parent="1">
          <mxGeometry x="30" y="-80" width="670" height="910" as="geometry" />
        </mxCell>
        <mxCell id="p4jZmZristvJu5TTy14j-1" value="다국적 사용자" style="shape=umlActor;verticalLabelPosition=bottom;verticalAlign=top;html=1;outlineConnect=0;" vertex="1" parent="1">
          <mxGeometry x="-50" y="325" width="30" height="60" as="geometry" />
        </mxCell>
        <mxCell id="p4jZmZristvJu5TTy14j-3" value="답글 쓰기" style="ellipse;whiteSpace=wrap;html=1;" vertex="1" parent="1">
          <mxGeometry x="153" y="456" width="140" height="40" as="geometry" />
        </mxCell>
        <mxCell id="p4jZmZristvJu5TTy14j-4" value="답글 수정" style="ellipse;whiteSpace=wrap;html=1;" vertex="1" parent="1">
          <mxGeometry x="153" y="504" width="140" height="40" as="geometry" />
        </mxCell>
        <mxCell id="p4jZmZristvJu5TTy14j-5" value="사업 공고 게시판 읽기" style="ellipse;whiteSpace=wrap;html=1;" vertex="1" parent="1">
          <mxGeometry x="120" y="30" width="160" height="40" as="geometry" />
        </mxCell>
        <mxCell id="p4jZmZristvJu5TTy14j-6" value="게시판 수정" style="ellipse;whiteSpace=wrap;html=1;" vertex="1" parent="1">
          <mxGeometry x="152" y="338" width="140" height="40" as="geometry" />
        </mxCell>
        <mxCell id="p4jZmZristvJu5TTy14j-7" value="게시판 쓰기" style="ellipse;whiteSpace=wrap;html=1;" vertex="1" parent="1">
          <mxGeometry x="152" y="293" width="140" height="40" as="geometry" />
        </mxCell>
        <mxCell id="p4jZmZristvJu5TTy14j-8" value="게시판 삭제" style="ellipse;whiteSpace=wrap;html=1;" vertex="1" parent="1">
          <mxGeometry x="152" y="385" width="140" height="40" as="geometry" />
        </mxCell>
        <mxCell id="p4jZmZristvJu5TTy14j-9" value="답글 삭제" style="ellipse;whiteSpace=wrap;html=1;" vertex="1" parent="1">
          <mxGeometry x="153" y="552" width="140" height="40" as="geometry" />
        </mxCell>
        <mxCell id="p4jZmZristvJu5TTy14j-14" value="게시판 읽기" style="ellipse;whiteSpace=wrap;html=1;" vertex="1" parent="1">
          <mxGeometry x="152" y="248" width="140" height="40" as="geometry" />
        </mxCell>
        <mxCell id="p4jZmZristvJu5TTy14j-15" value="카드 뉴스 읽기" style="ellipse;whiteSpace=wrap;html=1;" vertex="1" parent="1">
          <mxGeometry x="120" y="80" width="160" height="40" as="geometry" />
        </mxCell>
        <mxCell id="p4jZmZristvJu5TTy14j-16" value="창업 공간 확인 게시판 읽기" style="ellipse;whiteSpace=wrap;html=1;" vertex="1" parent="1">
          <mxGeometry x="120" y="130" width="180" height="40" as="geometry" />
        </mxCell>
        <mxCell id="p4jZmZristvJu5TTy14j-20" value="경험 공유 게시판" style="shape=umlFrame;whiteSpace=wrap;html=1;pointerEvents=0;width=100;height=30;" vertex="1" parent="1">
          <mxGeometry x="120" y="198" width="200" height="410" as="geometry" />
        </mxCell>
        <mxCell id="p4jZmZristvJu5TTy14j-24" value="" style="endArrow=none;html=1;rounded=0;entryX=0;entryY=0.5;entryDx=0;entryDy=0;" edge="1" parent="1" target="p4jZmZristvJu5TTy14j-5">
          <mxGeometry width="50" height="50" relative="1" as="geometry">
            <mxPoint y="350" as="sourcePoint" />
            <mxPoint x="40" y="288" as="targetPoint" />
          </mxGeometry>
        </mxCell>
        <mxCell id="p4jZmZristvJu5TTy14j-25" value="" style="endArrow=none;html=1;rounded=0;entryX=0;entryY=0.5;entryDx=0;entryDy=0;" edge="1" parent="1" target="p4jZmZristvJu5TTy14j-15">
          <mxGeometry width="50" height="50" relative="1" as="geometry">
            <mxPoint y="360" as="sourcePoint" />
            <mxPoint x="130" y="60" as="targetPoint" />
          </mxGeometry>
        </mxCell>
        <mxCell id="p4jZmZristvJu5TTy14j-26" value="" style="endArrow=none;html=1;rounded=0;entryX=0;entryY=0.5;entryDx=0;entryDy=0;" edge="1" parent="1" target="p4jZmZristvJu5TTy14j-16">
          <mxGeometry width="50" height="50" relative="1" as="geometry">
            <mxPoint y="370" as="sourcePoint" />
            <mxPoint x="130" y="110" as="targetPoint" />
          </mxGeometry>
        </mxCell>
        <mxCell id="p4jZmZristvJu5TTy14j-34" value="" style="endArrow=none;html=1;rounded=0;entryX=0;entryY=0.43;entryDx=0;entryDy=0;entryPerimeter=0;" edge="1" parent="1" target="p4jZmZristvJu5TTy14j-20">
          <mxGeometry width="50" height="50" relative="1" as="geometry">
            <mxPoint y="374" as="sourcePoint" />
            <mxPoint x="116.80000000000018" y="365.8399999999999" as="targetPoint" />
          </mxGeometry>
        </mxCell>
        <mxCell id="p4jZmZristvJu5TTy14j-37" value="로그인" style="ellipse;whiteSpace=wrap;html=1;" vertex="1" parent="1">
          <mxGeometry x="414" y="400" width="140" height="40" as="geometry" />
        </mxCell>
        <mxCell id="p4jZmZristvJu5TTy14j-40" value="&amp;lt;include&amp;gt;" style="endArrow=open;endSize=12;dashed=1;html=1;rounded=0;exitX=0.5;exitY=1;exitDx=0;exitDy=0;" edge="1" parent="1" source="p4jZmZristvJu5TTy14j-60" target="p4jZmZristvJu5TTy14j-37">
          <mxGeometry width="160" relative="1" as="geometry">
            <mxPoint x="430" y="430" as="sourcePoint" />
            <mxPoint x="440" y="475" as="targetPoint" />
          </mxGeometry>
        </mxCell>
        <mxCell id="p4jZmZristvJu5TTy14j-45" value="" style="group" vertex="1" connectable="0" parent="1">
          <mxGeometry x="711" y="271" width="65" height="84" as="geometry" />
        </mxCell>
        <mxCell id="p4jZmZristvJu5TTy14j-17" value="" style="image;points=[];aspect=fixed;html=1;align=center;shadow=0;dashed=0;image=img/lib/allied_telesis/computer_and_terminals/Server_Desktop.svg;" vertex="1" parent="p4jZmZristvJu5TTy14j-45">
          <mxGeometry x="3.7000000000000455" width="42.599999999999994" height="54" as="geometry" />
        </mxCell>
        <mxCell id="p4jZmZristvJu5TTy14j-19" value="백엔드서버" style="text;html=1;align=center;verticalAlign=middle;resizable=0;points=[];autosize=1;strokeColor=none;fillColor=none;" vertex="1" parent="p4jZmZristvJu5TTy14j-45">
          <mxGeometry y="54" width="80" height="30" as="geometry" />
        </mxCell>
        <mxCell id="p4jZmZristvJu5TTy14j-46" value="" style="endArrow=none;html=1;rounded=0;exitX=1;exitY=0.5;exitDx=0;exitDy=0;" edge="1" parent="1" source="p4jZmZristvJu5TTy14j-5">
          <mxGeometry width="50" height="50" relative="1" as="geometry">
            <mxPoint x="278" y="56" as="sourcePoint" />
            <mxPoint x="708" y="306" as="targetPoint" />
          </mxGeometry>
        </mxCell>
        <mxCell id="p4jZmZristvJu5TTy14j-48" value="" style="endArrow=none;html=1;rounded=0;entryX=1;entryY=0.5;entryDx=0;entryDy=0;" edge="1" parent="1" target="p4jZmZristvJu5TTy14j-15">
          <mxGeometry width="50" height="50" relative="1" as="geometry">
            <mxPoint x="700" y="310" as="sourcePoint" />
            <mxPoint x="500" y="248" as="targetPoint" />
          </mxGeometry>
        </mxCell>
        <mxCell id="p4jZmZristvJu5TTy14j-49" value="" style="endArrow=none;html=1;rounded=0;entryX=1;entryY=0.5;entryDx=0;entryDy=0;" edge="1" parent="1" target="p4jZmZristvJu5TTy14j-16">
          <mxGeometry width="50" height="50" relative="1" as="geometry">
            <mxPoint x="704" y="317" as="sourcePoint" />
            <mxPoint x="313.9999999999959" y="147" as="targetPoint" />
          </mxGeometry>
        </mxCell>
        <mxCell id="p4jZmZristvJu5TTy14j-50" value="" style="endArrow=none;html=1;rounded=0;entryX=1;entryY=0.5;entryDx=0;entryDy=0;exitX=-0.057;exitY=-0.152;exitDx=0;exitDy=0;exitPerimeter=0;" edge="1" parent="1" source="p4jZmZristvJu5TTy14j-19" target="p4jZmZristvJu5TTy14j-37">
          <mxGeometry width="50" height="50" relative="1" as="geometry">
            <mxPoint x="700" y="310" as="sourcePoint" />
            <mxPoint x="300" y="120" as="targetPoint" />
          </mxGeometry>
        </mxCell>
        <mxCell id="p4jZmZristvJu5TTy14j-51" value="회원가입" style="ellipse;whiteSpace=wrap;html=1;" vertex="1" parent="1">
          <mxGeometry x="140" y="720" width="140" height="40" as="geometry" />
        </mxCell>
        <mxCell id="p4jZmZristvJu5TTy14j-53" value="" style="endArrow=none;html=1;rounded=0;entryX=0;entryY=0.5;entryDx=0;entryDy=0;" edge="1" parent="1" target="p4jZmZristvJu5TTy14j-51">
          <mxGeometry width="50" height="50" relative="1" as="geometry">
            <mxPoint y="379" as="sourcePoint" />
            <mxPoint x="140" y="658.9999999999999" as="targetPoint" />
          </mxGeometry>
        </mxCell>
        <mxCell id="p4jZmZristvJu5TTy14j-59" value="" style="endArrow=none;html=1;rounded=0;entryX=1;entryY=0.5;entryDx=0;entryDy=0;" edge="1" parent="1" target="p4jZmZristvJu5TTy14j-51">
          <mxGeometry width="50" height="50" relative="1" as="geometry">
            <mxPoint x="710" y="330" as="sourcePoint" />
            <mxPoint x="500" y="770" as="targetPoint" />
          </mxGeometry>
        </mxCell>
        <mxCell id="p4jZmZristvJu5TTy14j-60" value="유효한 사용자인지 확인&lt;br&gt;(ID,Password 검증)" style="ellipse;whiteSpace=wrap;html=1;" vertex="1" parent="1">
          <mxGeometry x="410" y="280" width="140" height="58" as="geometry" />
        </mxCell>
        <mxCell id="p4jZmZristvJu5TTy14j-61" value="" style="endArrow=none;html=1;rounded=0;entryX=0;entryY=0.5;entryDx=0;entryDy=0;exitX=0.976;exitY=0.265;exitDx=0;exitDy=0;exitPerimeter=0;" edge="1" parent="1" source="p4jZmZristvJu5TTy14j-20" target="p4jZmZristvJu5TTy14j-60">
          <mxGeometry width="50" height="50" relative="1" as="geometry">
            <mxPoint x="320" y="375" as="sourcePoint" />
            <mxPoint x="560" y="300" as="targetPoint" />
          </mxGeometry>
        </mxCell>
        <mxCell id="p4jZmZristvJu5TTy14j-63" value="챗봇 상담 요청" style="ellipse;whiteSpace=wrap;html=1;" vertex="1" parent="1">
          <mxGeometry x="143" y="670" width="140" height="40" as="geometry" />
        </mxCell>
        <mxCell id="p4jZmZristvJu5TTy14j-64" value="&amp;lt;include&amp;gt;" style="endArrow=open;endSize=12;dashed=1;html=1;rounded=0;exitX=0.5;exitY=0;exitDx=0;exitDy=0;entryX=0;entryY=1;entryDx=0;entryDy=0;" edge="1" parent="1" target="p4jZmZristvJu5TTy14j-37">
          <mxGeometry width="160" relative="1" as="geometry">
            <mxPoint x="214" y="669.9999999999998" as="sourcePoint" />
            <mxPoint x="484" y="536" as="targetPoint" />
            <Array as="points">
              <mxPoint x="350" y="600" />
            </Array>
          </mxGeometry>
        </mxCell>
        <mxCell id="p4jZmZristvJu5TTy14j-65" value="" style="endArrow=none;html=1;rounded=0;entryX=0;entryY=0.5;entryDx=0;entryDy=0;" edge="1" parent="1" target="p4jZmZristvJu5TTy14j-63">
          <mxGeometry width="50" height="50" relative="1" as="geometry">
            <mxPoint x="4" y="377" as="sourcePoint" />
            <mxPoint x="114" y="768" as="targetPoint" />
          </mxGeometry>
        </mxCell>
        <mxCell id="p4jZmZristvJu5TTy14j-66" value="" style="endArrow=none;html=1;rounded=0;entryX=1;entryY=0.5;entryDx=0;entryDy=0;" edge="1" parent="1" target="p4jZmZristvJu5TTy14j-63">
          <mxGeometry width="50" height="50" relative="1" as="geometry">
            <mxPoint x="706" y="326" as="sourcePoint" />
            <mxPoint x="845" y="639" as="targetPoint" />
          </mxGeometry>
        </mxCell>
        <mxCell id="p4jZmZristvJu5TTy14j-67" value="" style="group" vertex="1" connectable="0" parent="1">
          <mxGeometry x="711" y="540" width="85" height="84" as="geometry" />
        </mxCell>
        <mxCell id="p4jZmZristvJu5TTy14j-68" value="" style="image;points=[];aspect=fixed;html=1;align=center;shadow=0;dashed=0;image=img/lib/allied_telesis/computer_and_terminals/Server_Desktop.svg;" vertex="1" parent="p4jZmZristvJu5TTy14j-67">
          <mxGeometry x="3.7000000000000455" width="42.599999999999994" height="54" as="geometry" />
        </mxCell>
        <mxCell id="p4jZmZristvJu5TTy14j-69" value="크롤링 서버" style="text;html=1;align=center;verticalAlign=middle;resizable=0;points=[];autosize=1;strokeColor=none;fillColor=none;" vertex="1" parent="p4jZmZristvJu5TTy14j-67">
          <mxGeometry x="-20" y="54" width="90" height="30" as="geometry" />
        </mxCell>
        <mxCell id="p4jZmZristvJu5TTy14j-70" value="" style="group" vertex="1" connectable="0" parent="1">
          <mxGeometry x="711" y="40" width="85" height="84" as="geometry" />
        </mxCell>
        <mxCell id="p4jZmZristvJu5TTy14j-71" value="" style="image;points=[];aspect=fixed;html=1;align=center;shadow=0;dashed=0;image=img/lib/allied_telesis/computer_and_terminals/Server_Desktop.svg;" vertex="1" parent="p4jZmZristvJu5TTy14j-70">
          <mxGeometry x="3.7000000000000455" width="42.599999999999994" height="54" as="geometry" />
        </mxCell>
        <mxCell id="p4jZmZristvJu5TTy14j-72" value="추론 서버" style="text;html=1;align=center;verticalAlign=middle;resizable=0;points=[];autosize=1;strokeColor=none;fillColor=none;" vertex="1" parent="p4jZmZristvJu5TTy14j-70">
          <mxGeometry x="-10" y="54" width="70" height="30" as="geometry" />
        </mxCell>
        <mxCell id="p4jZmZristvJu5TTy14j-73" style="edgeStyle=orthogonalEdgeStyle;rounded=0;orthogonalLoop=1;jettySize=auto;html=1;entryX=0.49;entryY=-0.028;entryDx=0;entryDy=0;entryPerimeter=0;" edge="1" parent="1" source="p4jZmZristvJu5TTy14j-72" target="p4jZmZristvJu5TTy14j-17">
          <mxGeometry relative="1" as="geometry" />
        </mxCell>
        <mxCell id="p4jZmZristvJu5TTy14j-79" value="정보 제공" style="edgeLabel;html=1;align=center;verticalAlign=middle;resizable=0;points=[];" vertex="1" connectable="0" parent="p4jZmZristvJu5TTy14j-73">
          <mxGeometry x="0.1441" y="5" relative="1" as="geometry">
            <mxPoint as="offset" />
          </mxGeometry>
        </mxCell>
        <mxCell id="p4jZmZristvJu5TTy14j-74" style="edgeStyle=orthogonalEdgeStyle;rounded=0;orthogonalLoop=1;jettySize=auto;html=1;entryX=0.307;entryY=1.255;entryDx=0;entryDy=0;entryPerimeter=0;" edge="1" parent="1" source="p4jZmZristvJu5TTy14j-68" target="p4jZmZristvJu5TTy14j-19">
          <mxGeometry relative="1" as="geometry" />
        </mxCell>
        <mxCell id="p4jZmZristvJu5TTy14j-80" value="정보 제공" style="edgeLabel;html=1;align=center;verticalAlign=middle;resizable=0;points=[];" vertex="1" connectable="0" parent="p4jZmZristvJu5TTy14j-74">
          <mxGeometry x="-0.1849" y="-8" relative="1" as="geometry">
            <mxPoint y="-3" as="offset" />
          </mxGeometry>
        </mxCell>
        <mxCell id="p4jZmZristvJu5TTy14j-86" value="" style="group" vertex="1" connectable="0" parent="1">
          <mxGeometry x="871" y="278" width="100" height="95" as="geometry" />
        </mxCell>
        <mxCell id="p4jZmZristvJu5TTy14j-84" value="" style="strokeWidth=2;html=1;shape=mxgraph.flowchart.database;whiteSpace=wrap;" vertex="1" parent="p4jZmZristvJu5TTy14j-86">
          <mxGeometry x="20" y="-11" width="60" height="62" as="geometry" />
        </mxCell>
        <mxCell id="p4jZmZristvJu5TTy14j-85" value="데이터베이스" style="text;html=1;align=center;verticalAlign=middle;resizable=0;points=[];autosize=1;strokeColor=none;fillColor=none;" vertex="1" parent="p4jZmZristvJu5TTy14j-86">
          <mxGeometry y="50" width="100" height="30" as="geometry" />
        </mxCell>
        <mxCell id="p4jZmZristvJu5TTy14j-93" style="edgeStyle=orthogonalEdgeStyle;rounded=0;orthogonalLoop=1;jettySize=auto;html=1;entryX=0;entryY=0.5;entryDx=0;entryDy=0;entryPerimeter=0;startArrow=blockThin;startFill=1;" edge="1" parent="1" source="p4jZmZristvJu5TTy14j-17" target="p4jZmZristvJu5TTy14j-84">
          <mxGeometry relative="1" as="geometry" />
        </mxCell>
        <mxCell id="p4jZmZristvJu5TTy14j-94" value="정보 제공" style="edgeLabel;html=1;align=center;verticalAlign=middle;resizable=0;points=[];" vertex="1" connectable="0" parent="p4jZmZristvJu5TTy14j-93">
          <mxGeometry x="-0.0524" y="1" relative="1" as="geometry">
            <mxPoint as="offset" />
          </mxGeometry>
        </mxCell>
        <mxCell id="p4jZmZristvJu5TTy14j-95" style="edgeStyle=orthogonalEdgeStyle;rounded=0;orthogonalLoop=1;jettySize=auto;html=1;entryX=0.976;entryY=0.284;entryDx=0;entryDy=0;entryPerimeter=0;" edge="1" parent="1" source="p4jZmZristvJu5TTy14j-84" target="p4jZmZristvJu5TTy14j-71">
          <mxGeometry relative="1" as="geometry">
            <Array as="points">
              <mxPoint x="921" y="55" />
            </Array>
          </mxGeometry>
        </mxCell>
        <mxCell id="p4jZmZristvJu5TTy14j-96" value="학습 데이터 제공" style="edgeLabel;html=1;align=center;verticalAlign=middle;resizable=0;points=[];" vertex="1" connectable="0" parent="p4jZmZristvJu5TTy14j-95">
          <mxGeometry x="0.0154" relative="1" as="geometry">
            <mxPoint as="offset" />
          </mxGeometry>
        </mxCell>
        <mxCell id="p4jZmZristvJu5TTy14j-97" value="&lt;h1&gt;AI를 활용한 국내 다국적 창업자 서포트 플랫폼 유스케이스&lt;/h1&gt;&lt;p&gt;&lt;font style=&quot;font-size: 16px;&quot;&gt;고도화 전 설계 사항입니다..&lt;/font&gt;&lt;/p&gt;" style="text;html=1;strokeColor=none;fillColor=none;spacing=5;spacingTop=-20;whiteSpace=wrap;overflow=hidden;rounded=0;" vertex="1" parent="1">
          <mxGeometry x="305" y="-66" width="356" height="120" as="geometry" />
        </mxCell>
        <mxCell id="p4jZmZristvJu5TTy14j-99" value="&amp;lt;include&amp;gt;" style="endArrow=open;endSize=12;dashed=1;html=1;rounded=0;entryX=0.5;entryY=1;entryDx=0;entryDy=0;exitX=0;exitY=0.5;exitDx=0;exitDy=0;" edge="1" parent="1" source="p4jZmZristvJu5TTy14j-100" target="p4jZmZristvJu5TTy14j-51">
          <mxGeometry width="160" relative="1" as="geometry">
            <mxPoint x="360.24000000000024" y="809.9499999999998" as="sourcePoint" />
            <mxPoint x="210" y="790" as="targetPoint" />
            <Array as="points">
              <mxPoint x="260" y="800" />
            </Array>
          </mxGeometry>
        </mxCell>
        <mxCell id="p4jZmZristvJu5TTy14j-100" value="사용자 중복성 체크" style="ellipse;whiteSpace=wrap;html=1;" vertex="1" parent="1">
          <mxGeometry x="440" y="770" width="140" height="40" as="geometry" />
        </mxCell>
        <mxCell id="p4jZmZristvJu5TTy14j-101" value="비밀번호 유효성 체크" style="ellipse;whiteSpace=wrap;html=1;" vertex="1" parent="1">
          <mxGeometry x="440" y="720" width="140" height="40" as="geometry" />
        </mxCell>
        <mxCell id="p4jZmZristvJu5TTy14j-103" value="&amp;lt;include&amp;gt;" style="endArrow=open;endSize=12;dashed=1;html=1;rounded=0;entryX=0.771;entryY=0.944;entryDx=0;entryDy=0;exitX=0;exitY=1;exitDx=0;exitDy=0;entryPerimeter=0;" edge="1" parent="1" source="p4jZmZristvJu5TTy14j-101" target="p4jZmZristvJu5TTy14j-51">
          <mxGeometry width="160" relative="1" as="geometry">
            <mxPoint x="470" y="780" as="sourcePoint" />
            <mxPoint x="240" y="750" as="targetPoint" />
            <Array as="points">
              <mxPoint x="270" y="790" />
            </Array>
          </mxGeometry>
        </mxCell>
        <mxCell id="p4jZmZristvJu5TTy14j-105" value="가입 유효성 체크" style="shape=umlFrame;whiteSpace=wrap;html=1;pointerEvents=0;width=100;height=30;" vertex="1" parent="1">
          <mxGeometry x="420" y="620" width="180" height="198" as="geometry" />
        </mxCell>
        <mxCell id="p4jZmZristvJu5TTy14j-106" value="이메일 사용자 인증" style="ellipse;whiteSpace=wrap;html=1;" vertex="1" parent="1">
          <mxGeometry x="440" y="670" width="140" height="40" as="geometry" />
        </mxCell>
        <mxCell id="p4jZmZristvJu5TTy14j-107" value="&amp;lt;include&amp;gt;" style="endArrow=open;endSize=12;dashed=1;html=1;rounded=0;entryX=0.771;entryY=0.944;entryDx=0;entryDy=0;exitX=0;exitY=1;exitDx=0;exitDy=0;entryPerimeter=0;" edge="1" parent="1" source="p4jZmZristvJu5TTy14j-106">
          <mxGeometry width="160" relative="1" as="geometry">
            <mxPoint x="483" y="746" as="sourcePoint" />
            <mxPoint x="270" y="750" as="targetPoint" />
            <Array as="points">
              <mxPoint x="292" y="770" />
            </Array>
          </mxGeometry>
        </mxCell>
        <mxCell id="p4jZmZristvJu5TTy14j-108" value="" style="endArrow=none;html=1;rounded=0;entryX=0.518;entryY=0.02;entryDx=0;entryDy=0;entryPerimeter=0;" edge="1" parent="1" target="p4jZmZristvJu5TTy14j-105">
          <mxGeometry width="50" height="50" relative="1" as="geometry">
            <mxPoint x="713" y="336" as="sourcePoint" />
            <mxPoint x="518.1999999999998" y="608.674" as="targetPoint" />
          </mxGeometry>
        </mxCell>
        <mxCell id="p4jZmZristvJu5TTy14j-116" value="인증 메일 전송" style="ellipse;whiteSpace=wrap;html=1;" vertex="1" parent="1">
          <mxGeometry x="580" y="565" width="99" height="40" as="geometry" />
        </mxCell>
        <mxCell id="p4jZmZristvJu5TTy14j-117" value="" style="endArrow=none;html=1;rounded=0;entryX=0.5;entryY=0;entryDx=0;entryDy=0;" edge="1" parent="1" target="p4jZmZristvJu5TTy14j-116">
          <mxGeometry width="50" height="50" relative="1" as="geometry">
            <mxPoint x="717" y="341" as="sourcePoint" />
            <mxPoint x="623.5" y="560" as="targetPoint" />
          </mxGeometry>
        </mxCell>
        <mxCell id="p4jZmZristvJu5TTy14j-119" value="&amp;lt;include&amp;gt;" style="endArrow=open;endSize=12;dashed=1;html=1;rounded=0;exitX=1;exitY=0.5;exitDx=0;exitDy=0;entryX=0.5;entryY=1;entryDx=0;entryDy=0;" edge="1" parent="1" source="p4jZmZristvJu5TTy14j-106" target="p4jZmZristvJu5TTy14j-116">
          <mxGeometry width="160" relative="1" as="geometry">
            <mxPoint x="490" y="348" as="sourcePoint" />
            <mxPoint x="493" y="410" as="targetPoint" />
          </mxGeometry>
        </mxCell>
      </root>
    </mxGraphModel>
  </diagram>
</mxfile>
